<svg width="371" height="371" viewBox="0 0 371 371" fill="none" xmlns="http://www.w3.org/2000/svg">
<path d="M324.625 0H46.375C20.7628 0 0 20.7628 0 46.375V324.625C0 350.237 20.7628 371 46.375 371H324.625C350.237 371 371 350.237 371 324.625V46.375C371 20.7628 350.237 0 324.625 0Z" fill="#35936A"/>
<g filter="url(#filter0_d_15_329)">
<path d="M135.193 63.4741C137.481 57.6504 143.384 54.0773 149.604 54.7507C155.825 55.4243 160.825 60.1772 161.813 66.3553L191.449 251.579L230.672 140.448C232.471 135.35 237.068 131.761 242.451 131.251C247.833 130.742 253.022 133.404 255.746 138.074L285.206 188.578H305.93L306.288 188.583C313.787 188.773 319.808 194.911 319.808 202.456C319.808 210.001 313.787 216.14 306.288 216.33L305.93 216.334H277.236C272.3 216.334 267.735 213.712 265.248 209.449L246.871 177.945L199.456 312.288C197.343 318.273 191.44 322.062 185.118 321.49C178.797 320.918 173.669 316.13 172.666 309.862L142.438 120.94L108.421 207.53C106.334 212.841 101.209 216.334 95.5033 216.334H66.809C59.1446 216.334 52.9313 210.121 52.9312 202.456C52.9312 194.792 59.1445 188.578 66.809 188.578H86.0454L135.193 63.4741Z" fill="#EAF6EB"/>
</g>
<g filter="url(#filter1_d_15_329)">
<path d="M304.659 29.2111L271.636 24.405C270.505 24.2404 269.38 24.7354 268.737 25.6781L234.333 76.1061C233.593 77.1907 233.656 78.6159 234.448 79.6285C234.48 79.6836 234.511 79.739 234.547 79.7921L241.696 90.3907C242.619 91.7596 244.476 92.1206 245.845 91.1973C250.505 88.0541 256.853 89.2885 259.996 93.9481C263.139 98.6078 261.906 104.956 257.246 108.099C255.877 109.023 255.516 110.88 256.439 112.249L262.005 120.501C262.929 121.87 264.786 122.231 266.155 121.308L333.754 75.7114C335.123 74.7881 335.484 72.9308 334.561 71.562L307.102 30.853C307.079 30.8189 307.053 30.7878 307.029 30.7551C306.984 30.6748 306.938 30.5956 306.886 30.5183C306.359 29.7379 305.529 29.2855 304.659 29.2111ZM272.622 30.5897L296.321 34.0391L248.062 66.5906L272.622 30.5897ZM327.933 72.4268L265.29 114.68L262.911 111.154C268.338 105.798 269.367 97.1515 264.952 90.6053C260.536 84.059 252.134 81.7747 245.135 84.7995L240.951 78.5969L303.595 36.3434L327.933 72.4268Z" fill="#FFD52F"/>
</g>
<path d="M303.821 58.4182C305.652 57.1831 306.135 54.6974 304.9 52.8662C303.665 51.0351 301.179 50.5519 299.348 51.7871C297.517 53.0222 297.033 55.5079 298.269 57.339C299.504 59.1701 301.989 59.6533 303.821 58.4182Z" fill="#DBBA35"/>
<path d="M273.752 83.3091C275.657 82.0241 276.16 79.4381 274.875 77.533C273.59 75.628 271.004 75.1253 269.099 76.4103C267.194 77.6953 266.691 80.2813 267.976 82.1863C269.261 84.0914 271.847 84.594 273.752 83.3091Z" fill="#DBBA35"/>
<path d="M304.805 76.8249C307.405 75.071 308.091 71.5413 306.337 68.941C304.583 66.3407 301.054 65.6546 298.453 67.4085C295.853 69.1624 295.167 72.6922 296.921 75.2924C298.675 77.8927 302.205 78.5788 304.805 76.8249Z" fill="#DBBA35"/>
<path d="M289.612 91.5138C291.768 90.0596 292.337 87.133 290.883 84.9771C289.429 82.8211 286.502 82.2523 284.346 83.7065C282.19 85.1607 281.621 88.0873 283.075 90.2432C284.53 92.3992 287.456 92.968 289.612 91.5138Z" fill="#DBBA35"/>
<path d="M285.144 67.2475C287.396 65.7282 287.991 62.6705 286.471 60.418C284.952 58.1656 281.894 57.5712 279.642 59.0905C277.389 60.6098 276.795 63.6675 278.314 65.92C279.834 68.1724 282.891 68.7668 285.144 67.2475Z" fill="#DBBA35"/>
<defs>
<filter id="filter0_d_15_329" x="48.9312" y="54.6696" width="274.877" height="274.877" filterUnits="userSpaceOnUse" color-interpolation-filters="sRGB">
<feFlood flood-opacity="0" result="BackgroundImageFix"/>
<feColorMatrix in="SourceAlpha" type="matrix" values="0 0 0 0 0 0 0 0 0 0 0 0 0 0 0 0 0 0 127 0" result="hardAlpha"/>
<feOffset dy="4"/>
<feGaussianBlur stdDeviation="2"/>
<feComposite in2="hardAlpha" operator="out"/>
<feColorMatrix type="matrix" values="0 0 0 0 0 0 0 0 0 0 0 0 0 0 0 0 0 0 0.25 0"/>
<feBlend mode="normal" in2="BackgroundImageFix" result="effect1_dropShadow_15_329"/>
<feBlend mode="normal" in="SourceGraphic" in2="effect1_dropShadow_15_329" result="shape"/>
</filter>
<filter id="filter1_d_15_329" x="231.814" y="24.3737" width="105.258" height="101.445" filterUnits="userSpaceOnUse" color-interpolation-filters="sRGB">
<feFlood flood-opacity="0" result="BackgroundImageFix"/>
<feColorMatrix in="SourceAlpha" type="matrix" values="0 0 0 0 0 0 0 0 0 0 0 0 0 0 0 0 0 0 127 0" result="hardAlpha"/>
<feOffset dy="2"/>
<feGaussianBlur stdDeviation="1"/>
<feComposite in2="hardAlpha" operator="out"/>
<feColorMatrix type="matrix" values="0 0 0 0 0 0 0 0 0 0 0 0 0 0 0 0 0 0 0.25 0"/>
<feBlend mode="normal" in2="BackgroundImageFix" result="effect1_dropShadow_15_329"/>
<feBlend mode="normal" in="SourceGraphic" in2="effect1_dropShadow_15_329" result="shape"/>
</filter>
</defs>
</svg>
