<?xml version="1.0" standalone="no"?><!DOCTYPE svg PUBLIC "-//W3C//DTD SVG 1.1//EN" "http://www.w3.org/Graphics/SVG/1.1/DTD/svg11.dtd"><svg t="1718188088214" class="icon" viewBox="0 0 1024 1024" version="1.1" xmlns="http://www.w3.org/2000/svg" p-id="32397" xmlns:xlink="http://www.w3.org/1999/xlink" width="400" height="400"><path d="M723.584 322.56l57.728 47.787 18.816 15.658c15.787 13.995 29.355 29.526 40.107 46.635l3.498 5.888 12.587 1.323c19.285 2.688 38.101 8.277 55.68 17.024l8.917 4.778 5.334 3.243 66.901 43.477-38.656 69.376-2.603 5.206c-26.154 48.298-69.248 75.648-120.832 85.205l-5.76 0.896-3.498 6.955c-83.755 159.786-235.947 246.186-425.984 250.325l-14.336 0.128c-121.131 0-226.219-51.712-286.806-151.467l-12.842-21.674-0.043-3.926-1.963-4.053A314.71 314.71 0 0 1 55.04 613.376c0.853-30.464 5.29-63.872 13.397-100.224h564.736l-0.17-3.797c-0.982-36.48 8.192-75.734 28.288-106.752l5.76-8.235 56.576-71.808z m11.093 104.107l-10.24 12.97c-14.25 19.03-19.882 50.304-18.048 73.942 1.92 18.73 7.68 37.333 17.707 51.84-8.107 4.309-18.176 8.32-25.899 12.544a162.987 162.987 0 0 1-53.76 8.362H131.072l-1.92 12.331-0.47 5.76c-2.858 38.4 3.457 77.013 18.475 112.341l7.808 14.507v2.005l2.603 4.352c48.47 79.787 132.523 115.712 223.915 115.712 179.029 0 325.845-80.725 395.477-254.592 45.61 2.048 91.648-10.368 113.28-55.893L896 532.48l-9.6-6.23-3.285-2.005c-25.6-14.634-59.392-16.341-87.894-8.362l-0.597 0.085 0.043-0.256-0.598-3.925c-5.29-31.275-24.448-56.918-49.322-76.8l-10.027-8.32zM170.667 384v85.333H85.333V384h85.334z m128 0v85.333h-85.334V384h85.334z m128 0v85.333h-85.334V384h85.334z m128 0v85.333h-85.334V384h85.334z m-256-128v85.333h-85.334V256h85.334z m128 0v85.333h-85.334V256h85.334z m128 0v85.333h-85.334V256h85.334z m-128-128v85.333h-85.334V128h85.334z" fill="#1296DB" p-id="32398"></path></svg>