<?xml version="1.0" standalone="no"?><!DOCTYPE svg PUBLIC "-//W3C//DTD SVG 1.1//EN" "http://www.w3.org/Graphics/SVG/1.1/DTD/svg11.dtd"><svg t="1719128279614" class="icon" viewBox="0 0 1024 1024" version="1.1" xmlns="http://www.w3.org/2000/svg" p-id="3801" xmlns:xlink="http://www.w3.org/1999/xlink" width="400" height="400"><path d="M0 0m170.666667 0l682.666666 0q170.666667 0 170.666667 170.666667l0 682.666666q0 170.666667-170.666667 170.666667l-682.666666 0q-170.666667 0-170.666667-170.666667l0-682.666666q0-170.666667 170.666667-170.666667Z" fill="#C9EFEA" p-id="3802"></path><path d="M304.64 520.931556a264.419556 264.419556 0 0 0 170.552889 264.391111C528.668444 743.054222 520.135111 390.826667 525.397333 141.539556 505.543111 230.087111 304.611556 304.071111 304.611556 520.988444" fill="#58BB4A" p-id="3803"></path><path d="M532.053333 189.781333c3.982222 156.046222 44.942222 581.745778-26.453333 605.496889v71.338667c0 10.040889 15.872 15.843556 24.462222 15.843555 8.618667 0 22.499556-5.916444 22.499556-19.143111v-72.704a288.227556 288.227556 0 0 0 167.253333-270.336c0-154.652444-162.673778-280.234667-187.761778-330.524444" fill="#58BB4A" p-id="3804"></path></svg>