<?xml version="1.0" standalone="no"?><!DOCTYPE svg PUBLIC "-//W3C//DTD SVG 1.1//EN" "http://www.w3.org/Graphics/SVG/1.1/DTD/svg11.dtd"><svg t="1718357056227" class="icon" viewBox="0 0 1024 1024" version="1.1" xmlns="http://www.w3.org/2000/svg" p-id="2613" xmlns:xlink="http://www.w3.org/1999/xlink" width="400" height="400"><path d="M12.416 912.512L692.352 1024l103.637333-379.861333-638.464-189.952z" fill="#00E186" p-id="2614"></path><path d="M592.853333 0l364.8 161.024-157.525333 293.162667-439.466667-272.512z" fill="#00E486" p-id="2615"></path><path d="M957.653333 161.024L1024 578.048l-198.997333 115.626667z" fill="#A164FF" p-id="2616"></path><path d="M0 12.373333l957.653333 148.650667-66.304 619.349333L0 474.88z" fill="#00E08A" p-id="2617"></path><path d="M0 12.373333l957.653333 148.650667-66.304 619.349333z" fill="#FF17ED" p-id="2618"></path><path d="M0 474.837333L692.352 1024l103.637333-379.861333z" fill="#8979EF" p-id="2619"></path><path d="M194.858667 194.048h634.282666v631.722667H194.858667z" fill="#050000" p-id="2620"></path><path d="M368.981333 276.650667a132.394667 132.394667 0 0 1 132.693334 132.138666 132.394667 132.394667 0 0 1-132.693334 132.096H257.024V276.650667h111.957333z m-8.32 53.674666H315.093333v156.885334h45.568c43.52 0 78.805333-35.114667 78.805334-78.421334a78.592 78.592 0 0 0-77.397334-78.464h-1.408z m290.218667-57.813333c36.096 0 69.290667 11.306667 98.730667 33.450667l2.005333 1.536-35.626667 45.653333a103.082667 103.082667 0 0 0-65.109333-22.826667c-19.754667 0-38.997333 5.802667-52.778667 16.853334-16.554667 13.226667-26.026667 34.176-26.026666 65.706666 0 30.250667 16.554667 53.930667 28.757333 61.952l2.645333 1.792 4.949334 3.328 2.346666 1.536 0.768 0.512 2.346667 1.408 1.578667 0.896c7.978667 4.352 17.28 7.04 35.413333 7.04a95.573333 95.573333 0 0 0 53.888-16.512v-37.12h-58.026667V388.096h116.053334v113.92c-34.090667 28.458667-71.381333 42.666667-111.914667 42.666667-28.586667 0-59.861333-7.424-84.821333-25.344-33.024-23.68-51.968-57.770667-51.968-106.496 0-48.512 16.938667-86.186667 47.616-110.762667 24.917333-19.968 57.002667-29.610667 89.173333-29.610667z m-393.813333 437.674667h232.106666v41.301333h-232.106666v-41.301333z" fill="#FFFFFF" p-id="2621"></path></svg>