<svg xmlns="http://www.w3.org/2000/svg"  viewBox="0 0 48 48" width="240px" height="240px"><linearGradient id="TkEd3NHq6vM6AskF8Tvd8a" x1="27.884" x2="32.384" y1="43.849" y2="17.711" gradientTransform="matrix(1 0 0 -1 0 49.276)" gradientUnits="userSpaceOnUse"><stop offset="0" stop-color="#00bffe"/><stop offset="1" stop-color="#1d55c4"/></linearGradient><circle cx="30.479" cy="20.5" r="13.5" fill="url(#TkEd3NHq6vM6AskF8Tvd8a)"/><path fill="#ff3d00" d="M21.979,30c-12-3-10-10-4.814-11.644c0.234-1.464,0.695-2.85,1.359-4.117 c-2.375,0.024-12.31,0.809-12.42,12.011C5.979,39,20.729,40,24.354,38L21.979,30z"/><linearGradient id="TkEd3NHq6vM6AskF8Tvd8b" x1="5.963" x2="24.979" y1="17.427" y2="17.427" gradientTransform="matrix(1 0 0 -1 0 49.276)" gradientUnits="userSpaceOnUse"><stop offset="0" stop-color="#0d61a6"/><stop offset="1" stop-color="#165289"/></linearGradient><path fill="url(#TkEd3NHq6vM6AskF8Tvd8b)" d="M5.979,26c0,0-1,11.75,13,12.875 c0,0,3.5,0,6-0.875l-2.125-4.625L7.727,24.971C6.943,24.536,5.979,25.103,5.979,26L5.979,26z"/><linearGradient id="TkEd3NHq6vM6AskF8Tvd8c" x1="5.979" x2="25.979" y1="24.171" y2="24.171" gradientTransform="matrix(1 0 0 -1 0 49.276)" gradientUnits="userSpaceOnUse"><stop offset="0" stop-color="#48e24f"/><stop offset="1" stop-color="#088042"/></linearGradient><path fill="url(#TkEd3NHq6vM6AskF8Tvd8c)" d="M25.979,35c0,0-18,3-20-9 c-0.008-0.051,0.021-10.003,8-11.125l-4.5,5.25L9.979,27c0,0,7.75,4.5,12.875,4.75L25.979,35z"/><linearGradient id="TkEd3NHq6vM6AskF8Tvd8d" x1="8.826" x2="19.968" y1="41.601" y2="12.575" gradientTransform="matrix(1 0 0 -1 0 49.276)" gradientUnits="userSpaceOnUse"><stop offset="0" stop-color="#ffd447"/><stop offset=".482" stop-color="#ffd345"/><stop offset="1" stop-color="#f2b900"/></linearGradient><path fill="url(#TkEd3NHq6vM6AskF8Tvd8d)" d="M18.524,14.239 c0,0-7.796,1.261-8.171,8.011s13,7.875,13,7.875l-0.625,2.25c0,0-15.5,0.875-14.625-10.75C8.104,21.625,9.024,13.614,18.524,14.239 z"/><linearGradient id="TkEd3NHq6vM6AskF8Tvd8e" x1="10.829" x2="23.165" y1="33.572" y2="17.728" gradientTransform="matrix(1 0 0 -1 0 49.276)" gradientUnits="userSpaceOnUse"><stop offset="0" stop-color="#f22537"/><stop offset=".293" stop-color="#f02536"/><stop offset=".465" stop-color="#e72434"/><stop offset=".605" stop-color="#d92231"/><stop offset=".729" stop-color="#c5202c"/><stop offset=".841" stop-color="#ab1e25"/><stop offset=".944" stop-color="#8c1a1d"/><stop offset="1" stop-color="#7a1818"/></linearGradient><path fill="url(#TkEd3NHq6vM6AskF8Tvd8e)" d="M17.165,18.356 c0.107-0.668,0.267-1.317,0.465-1.948C15.713,16.904,12.979,18,11.979,21c-1.267,3.802,0,7,10,9C9.979,27,11.979,20,17.165,18.356z"/><linearGradient id="TkEd3NHq6vM6AskF8Tvd8f" x1="27.936" x2="16.561" y1="36.954" y2="25.451" gradientTransform="matrix(1 0 0 -1 0 49.276)" gradientUnits="userSpaceOnUse"><stop offset="0" stop-color="#84e1fe"/><stop offset="1" stop-color="#167cf7"/></linearGradient><path fill="url(#TkEd3NHq6vM6AskF8Tvd8f)" d="M32.39,7.151 C31.764,7.062,31.129,7,30.479,7c-7.456,0-13.5,6.044-13.5,13.5c0,1.624,0.302,3.174,0.827,4.616 c0.127-0.086,2.461-5.47,6.392-2.795c0.966,0.657,2.281,0.255,2.854-0.764c0.707-1.258,1.811-2.777,3.445-3.977 c1.102-0.81,1.089-2.394,0.019-3.246c-0.473-0.377-0.825-0.844-0.92-1.419c-0.175-1.05,0.555-1.14,1.4-0.929 c0.9,0.225,1.634-0.766,1.098-1.523C31.443,9.544,30.447,8.77,28.979,9C28.979,9,28.922,8.523,32.39,7.151z"/><linearGradient id="TkEd3NHq6vM6AskF8Tvd8g" x1="46.406" x2="32.618" y1="30.176" y2="17.857" gradientTransform="matrix(1 0 0 -1 0 49.276)" gradientUnits="userSpaceOnUse"><stop offset="0" stop-color="#84e1fe"/><stop offset="1" stop-color="#167cf7"/></linearGradient><path fill="url(#TkEd3NHq6vM6AskF8Tvd8g)" d="M40.71,26.285 c-5.798-1.085-10.915,2.362-10.915,2.362l6.193,4.203c2.99-1.338,5.398-3.728,6.763-6.703C41.686,26.468,40.71,26.285,40.71,26.285 z"/><polygon fill="#166a0d" points="24.354,41.875 21.104,25.125 39.979,30.25"/><linearGradient id="TkEd3NHq6vM6AskF8Tvd8h" x1="35.376" x2="22.291" y1="25.847" y2="11.74" gradientTransform="matrix(1 0 0 -1 0 49.276)" gradientUnits="userSpaceOnUse"><stop offset="0" stop-color="#61e25d"/><stop offset=".128" stop-color="#5de25b"/><stop offset=".244" stop-color="#52e255"/><stop offset=".313" stop-color="#48e24f"/><stop offset=".623" stop-color="#2db849"/><stop offset="1" stop-color="#088042"/></linearGradient><polygon fill="url(#TkEd3NHq6vM6AskF8Tvd8h)" points="21.104,25.125 28.979,33 41.979,30"/><polygon fill="#2e7d32" points="24.354,41.875 28.979,33 41.979,30"/></svg>