<?xml version="1.0" encoding="utf-8"?>
<!-- Generator: Adobe Illustrator 22.0.0, SVG Export Plug-In . SVG Version: 6.00 Build 0)  -->
<svg version="1.1" id="图层_1" xmlns="http://www.w3.org/2000/svg" xmlns:xlink="http://www.w3.org/1999/xlink" x="0px" y="0px"
	 viewBox="0 0 113.4 113.4" style="enable-background:new 0 0 113.4 113.4;" xml:space="preserve">
<style type="text/css">
	.st0{fill:#1CA34F;}
	.st1{fill:#FFFFFF;}
</style>
<g>
	<path class="st0" d="M99.2,113.4h-85C6.4,113.4,0,107,0,99.2v-85C0,6.4,6.4,0,14.2,0h85c7.8,0,14.2,6.4,14.2,14.2v85
		C113.4,107,107,113.4,99.2,113.4z"/>
	<g id="XMLID_12_">
		<path class="st1" d="M56.7,81.7c-17.4,0-33.5-8.7-43.3-23.4c-0.6-1-0.6-2.2,0-3.2c9.7-14.6,25.9-23.4,43.3-23.4
			c17.4,0,33.5,8.7,43.3,23.4c0.6,1,0.6,2.3,0,3.2C90.2,73,74.1,81.7,56.7,81.7z M19.4,56.7c8.7,12,22.5,19.2,37.3,19.2
			c14.8,0,28.6-7.1,37.3-19.2c-8.7-12-22.5-19.2-37.3-19.2C41.9,37.5,28.1,44.7,19.4,56.7z"/>
		<g id="XMLID_15_">
			<g id="XMLID_17_">
				<path class="st1" d="M21,93h-6.6C8.8,93,4.2,88.4,4.2,82.7V30.7c0-5.7,4.6-10.3,10.3-10.3H21c1.6,0,2.9,1.3,2.9,2.9
					c0,1.6-1.3,2.9-2.9,2.9h-6.6c-2.4,0-4.4,2-4.4,4.4v52.1c0,2.4,2,4.4,4.4,4.4H21c1.6,0,2.9,1.3,2.9,2.9C23.9,91.7,22.6,93,21,93z
					"/>
			</g>
			<g id="XMLID_16_">
				<path class="st1" d="M98.9,93h-6.6c-1.6,0-2.9-1.3-2.9-2.9c0-1.6,1.3-2.9,2.9-2.9h6.6c2.4,0,4.4-2,4.4-4.4V30.7
					c0-2.4-2-4.4-4.4-4.4h-6.6c-1.6,0-2.9-1.3-2.9-2.9c0-1.6,1.3-2.9,2.9-2.9h6.6c5.7,0,10.3,4.6,10.3,10.3v52.1
					C109.2,88.4,104.6,93,98.9,93z"/>
			</g>
		</g>
		<path class="st1" d="M56.7,75.7c-10.5,0-19-8.5-19-19s8.5-19,19-19c10.5,0,19,8.5,19,19S67.2,75.7,56.7,75.7z M56.7,41.9
			c-8.2,0-14.8,6.6-14.8,14.8s6.6,14.8,14.8,14.8s14.8-6.6,14.8-14.8S64.9,41.9,56.7,41.9z"/>
		<path class="st1" d="M67.6,70.3c-0.8,0-1.6-0.5-1.9-1.3l-9-21.8l-9,21.8C47.2,70,46,70.5,45,70.1c-1.1-0.4-1.6-1.7-1.1-2.7
			l10.9-26.5c0.3-0.8,1.1-1.3,1.9-1.3s1.6,0.5,1.9,1.3l10.9,26.5c0.4,1.1-0.1,2.3-1.1,2.7C68.2,70.2,67.9,70.3,67.6,70.3z"/>
	</g>
</g>
</svg>
