<?xml version="1.0" standalone="no"?><!DOCTYPE svg PUBLIC "-//W3C//DTD SVG 1.1//EN" "http://www.w3.org/Graphics/SVG/1.1/DTD/svg11.dtd"><svg t="1718189336385" class="icon" viewBox="0 0 1024 1024" version="1.1" xmlns="http://www.w3.org/2000/svg" p-id="68188" xmlns:xlink="http://www.w3.org/1999/xlink" width="400" height="400"><path d="M512 0a20.351995 20.351995 0 0 0-8.020998 2.005L92.592098 182.354957c-11.305997 7.209998-16.126996 15.487996-15.870996 29.524993l35.497992 438.521898c0.384 4.564999 2.005 7.039998 5.460998 10.665997l152.061965 115.752973s0.64 85.97198 19.412995 119.720972c14.164997 25.471994 79.998981 128.85197 222.844948 127.44397 142.845967-1.408 212.81795-86.61198 233.979945-129.19297 20.053995-40.361991 19.626995-124.243971 19.626996-124.243971l138.877967-108.712974a13.225997 13.225997 0 0 0 5.973999-11.007998l36.691991-439.886896c1.11-13.311997-4.393999-24.319994-15.699996-29.225994L519.721998 2.005A18.559996 18.559996 0 0 0 512 0z m-2.175999 45.993989c2.303999 0.085 4.607999 0.853 8.020998 2.39L834.299924 194.683954 517.631999 379.727911c-4.906999 2.474999-7.082998 2.09-11.263998 0L192.772075 197.799954c-4.819999-3.156999-5.119999-5.332999 0-8.404998L501.420002 47.998989a22.783995 22.783995 0 0 1 8.404999-2.005z m0.426999 29.353993L251.950061 195.879954l257.78794 148.904965 258.854939-148.477965z m0 15.999997L733.479948 196.306954l-139.176967 77.651982-44.37299-23.764995 75.262982-94.206978-91.219978 35.753992 47.956989-59.475986-138.749968 57.427987 46.931989-49.065989-41.72699-19.199995z m-78.377981 36.223991l33.449992 16.553996-90.237979 89.512979 154.236964-63.656985-53.161988 64.083985 95.444978-39.764991-48.469989 60.542986L575.699985 283.259934l-66.558984 37.759991-219.644949-125.694971zM136.197088 294.054931c1.237 0 3.071999 0.853 5.759999 2.304l310.609927 195.281954 0.724 333.563922-292.389932-215.76295c-3.284999-3.113999-4.436999-4.180999-4.394999-8.233998L134.320089 296.69993c0-1.835 0.64-2.644999 1.876999-2.644999z m750.581824 3.668999c1.28 0 1.792 0.853 1.834 2.645l-21.119995 299.814929c0 4.095999-1.109 5.119999-4.393999 8.233998L571.134986 825.204807l1.835-333.009922 308.005928-192.166955a14.847997 14.847997 0 0 1 5.802998-2.304zM852.43292 434.509898l-7.551998 5.375999-5.674999 18.858995-2.089999-13.439996-9.642998 6.399998 6.186999 25.513994-9.557998 39.039991 9.941998-8.319998 3.625999-22.484995 2.729999 17.619996 11.861997-7.849998-8.319998-29.097993z m-670.283843 10.623998c-5.119999-0.47-8.106998 5.418999-7.210998 15.786996 1.195 13.950997 8.959998 30.719993 17.407996 37.417991l17.876996 14.079997c8.532998 6.739998 14.420997 0.768 13.097997-13.354997-1.28-14.079997-9.215998-30.889993-17.662996-37.502991l-17.791996-13.780997a11.306997 11.306997 0 0 0-5.716999-2.645999z m3.2 10.026997a7.380998 7.380998 0 0 1 3.710999 1.75L206.000072 470.13689c5.503999 4.308999 10.665998 15.273996 11.519997 24.319994 0.853 9.171998-2.986999 12.969997-8.489998 8.617998l-17.066996-13.439997c-5.461999-4.309999-10.495998-15.103996-11.263997-24.149994-0.597-6.739998 1.28-10.622998 4.649999-10.323998z m632.438851 4.393999c0-1.493-3.156999 0.427-4.906999 1.707-6.825998 5.247999-15.273996 23.849994-15.871996 45.566989-0.64 23.722994 4.693999 26.409994 11.221998 21.929995 6.910998-4.692999 16.297996-20.990995 16.639996-43.77499 0.298-17.449996-7.082998-20.948995-7.082999-25.428994z m-30.420993 2.859s-18.729996 8.106998-18.772995 12.585997c-0.427 27.732994-2.986999 83.96698-2.986999 83.96698l14.164996-10.708997s14.036997-9.300998 14.249997-34.985992c0.129-16.469996-5.374999-13.226997-5.374999-13.226997s4.436999-9.299998 4.521999-21.929995c0.214-18.985996-5.801999-15.700996-5.801999-15.700996z m25.684994 9.129997c4.905999 0 4.009999 11.434997 3.925 19.029996-0.085 7.465998-3.753999 24.574994-7.679999 27.433994-3.967999 2.900999-4.265999-10.367998-4.180999-18.047996 0.128-7.380998 3.156999-28.414993 7.935998-28.414994z m-30.719992 3.2s3.413999-2.133 3.114999 9.130998a35.369992 35.369992 0 0 1-3.754999 13.993996l-5.716999 3.839999 0.256-22.953994z m-21.844995 0.896l-9.769998 5.973998-2.559999 78.632982s-0.598 7.849998 1.535999 9.471997c3.071999 2.389999 11.391997-7.380998 11.391998-7.380998l-0.171-8.959998s-3.199999 0.768-3.072-2.474999z m-536.482875 0.511999l4.778999 51.029988 5.972999 4.734999-3.882999-42.15399 19.669995 15.487997a20.052995 20.052995 0 0 1 5.844999 12.244997c0.426 4.607999-1.408 6.569998-4.181999 4.393999l-16.895996-13.353997 20.351995 39.93499 8.746998 6.954999-13.652997-26.324994 2.688 2.132999c5.844999 4.565999 9.812998 0.555 8.873998-9.087997-0.939-9.599998-6.399999-21.161995-12.244998-25.683994z m556.74987 33.279993s4.265999-1.024 3.839999 11.903997c-0.342 10.964997-3.839999 14.420997-3.839999 14.420996l-6.485998 4.692999 0.554999-26.452993z m-40.53299 7.423998c-1.792-0.512-4.351999 0.256-8.063999 3.284999-4.564999 2.986999-13.012997 16.212996-13.012997 16.212996l0.341 8.106998s4.863999-6.015999 7.295999-7.978998c9.429998-9.385998 7.039998 3.839999 7.039998 3.839999l-0.213 4.223999-6.655998 6.229999s-9.855998 9.684998-10.367998 28.073993c-0.256 8.788998 2.900999 14.932997 7.679998 11.305998 4.692999-3.497999 10.537998-14.079997 10.537998-14.079997l0.17 6.143999 8.106998-7.252999 0.555-43.51999s1.835-13.097997-3.412999-14.590996z m-456.697893 5.375999c-1.493-1.195-2.815999-1.152-3.413 0.17l-14.249996 34.132992 7.124998 5.674998 11.646997-28.628993 10.837998 29.439993-16.212996-12.799997 4.479998 11.945997 16.468997 13.098997 4.393999 11.945997 7.252998 5.717999-24.404994-64.767985a14.420997 14.420997 0 0 0-3.924999-5.929998z m428.964899 14.932996l-7.679998 5.631999-0.427 45.993989s-4.179999 8.105998-5.972999 9.257998c-3.071999 2.006-2.986999-4.564999-2.986999-4.564999l0.64-43.51999-8.190998 6.186999-0.64 43.519989s-0.47 19.497995 7.764998 13.353997a33.236992 33.236992 0 0 0 9.471998-13.779996l0.725 5.459998 6.569998-4.692999z m-34.388992 4.692999l-6.996998 4.607999-2.816 20.863995-3.284999 2.09v0.981999l-6.485998 4.052999c-2.559999 3.967999-4.180999 16.212996-4.180999 16.212997l0.085-12.287998-7.465999 5.290999-1.706999 63.273985 8.447998-6.100998 1.834999-37.418991s1.365-9.001998 4.180999-13.694997l4.564999-3.669999 0.726-13.183997 0.085 6.613998 2.815999-2.389999-0.340999 40.31999s-0.64 13.396997 6.399998 8.703998c2.430999-1.664 9.086998-9.812998 9.086998-9.812997l-0.384-8.234999s-3.241999 3.029999-4.265999 3.67c-1.579 0.98-1.536-2.474999-1.536-2.475l0.896-39.039991 4.692999-3.284999-0.128-10.239997-4.095999 2.559999z m-364.837914 5.972999c-5.289999-0.512-8.404998 5.546999-7.294999 16.383996 1.493 14.463997 9.897998 31.913993 18.772996 38.953991l19.156995 15.060996 2.645-6.399998-22.356995-17.705996c-5.716999-4.564999-11.220997-15.785996-12.202997-25.172994-0.98-9.343998 2.986999-13.225997 8.661998-8.788998l18.046996 14.207996 2.645999-6.399998-22.058995-17.407996a11.946997 11.946997 0 0 0-6.015998-2.729999z m420.260901 7.338998v15.231996s-4.564999 5.375999-6.655998 6.612999c-2.048 1.237-2.559999-2.346999-2.56-5.503999a19.497995 19.497995 0 0 1 5.034999-12.500997z m-94.973978 7.295998c-2.858999 2.048-5.247999 8.020998-5.290998 13.353997 0 5.333999 2.260999 7.978998 5.119998 5.973999 2.900999-2.048 5.332999-8.021998 5.375999-13.396997 0-5.333999-2.303999-8.021998-5.204999-5.930999z m-293.841931 8.063998l5.119999 47.785989a12.629997 12.629997 0 0 0 3.711999 7.593998l28.713993 22.698995 2.646-6.484998-29.269993-23.167995-4.691999-43.60499z m285.179933 4.649999l-9.086997 6.655999s-0.94 15.829996-7.765999 72.105983c-5.631999-41.81299-5.631999-61.865986-5.631998-61.865986l-10.495998 6.954999 6.485999 76.926982 15.572996-8.874998z m11.049998 12.714997l-8.403998 6.015999-2.646 64.211985 8.405998-6.057999z m-252.197941 19.028996c-5.418999-0.555-8.447998 5.674999-7.209998 16.724996 1.663 14.762997 10.409998 32.639992 19.497995 39.84999l19.625995 15.529997 2.73-6.569999-23.081995-18.175995c-4.863999-3.839999-9.599998-12.372997-11.647997-20.692995l27.135994 21.332995 2.644999-6.527999-30.889993-24.319994c0.427-6.227999 4.009999-8.361998 8.831998-4.564999l18.601996 14.634996 2.645999-6.484998-22.783995-17.834996a12.457997 12.457997 0 0 0-6.100998-2.900999z m32.809992 25.044994c-0.555 0.555-0.853 1.792-0.64 3.455999a14.975996 14.975996 0 0 0 4.479999 8.959998c2.048 1.621 3.412999 0.256 2.986-3.114999a15.359996 15.359996 0 0 0-4.479999-9.044998c-1.023-0.768-1.791-0.853-2.346-0.256z m0.64 1.365c0.427-0.426 1.11-0.426 1.92 0.171 1.621 1.28 3.156999 4.436999 3.412999 7.039998 0.341 2.687999-0.682 3.753999-2.346 2.473999-0.512-0.426-0.64-1.493-1.066999-2.174999l0.256 0.17-0.256-2.56 0.639999 0.427 1.067 3.327999 0.938 0.725-1.28-3.583999h0.17c0.342-0.085 0.385-0.554 0.342-0.81v-0.555a5.204999 5.204999 0 0 0-1.066-2.474999 5.119999 5.119999 0 0 0-1.109999-1.066l-0.981-0.853999 0.64 5.845998c-0.64-1.28-1.579-2.133999-1.707-3.413999-0.213-1.365 0-2.260999 0.427-2.687999z m1.536 2.005999l0.256 0.17c0.427 0.342 0.555 0.47 0.767999 0.726a2.986999 2.986999 0 0 1 0.427 1.109c0 0.256 0.085 0.427 0 0.554999-0.086 0.256-0.384 0.085-0.64-0.085999l-0.554999-0.426z" fill="#1296DB" p-id="68189"></path></svg>