<?xml version="1.0" standalone="no"?><!DOCTYPE svg PUBLIC "-//W3C//DTD SVG 1.1//EN" "http://www.w3.org/Graphics/SVG/1.1/DTD/svg11.dtd"><svg t="1718203042682" class="icon" viewBox="0 0 1024 1024" version="1.1" xmlns="http://www.w3.org/2000/svg" p-id="2998" xmlns:xlink="http://www.w3.org/1999/xlink" width="400" height="400"><path d="M512 1020.842667c-280.8832 0-508.586667-227.003733-508.586667-506.999467S231.1168 6.843733 512 6.843733s508.586667 227.003733 508.586667 506.999467-227.669333 506.999467-508.586667 506.999467z m312.746667-503.261867c0.938667-79.530667-45.021867-164.471467-105.489067-225.348267-105.489067-104.379733-255.453867-98.798933-369.237333-45.056 97.9456 8.174933 154.811733 41.028267 210.978133 97.655467 57.326933 56.541867 75.332267 99.703467 75.3664 172.7488h-97.979733l188.416 210.312533 188.3648-210.295466h-90.4192z m-625.425067-7.458133c-0.9728 79.530667 45.021867 164.471467 105.454933 225.348266 105.5232 104.379733 255.453867 98.798933 369.237334 45.056-97.9456-8.174933-154.7776-41.028267-210.978134-97.655466-57.2928-56.541867-75.332267-99.703467-75.332266-172.7488h97.9456L297.2672 299.776 108.9024 510.088533h90.4192v0.034134z" fill="#FF3333" p-id="2999"></path></svg>