<svg width="32" height="32" viewBox="0 0 32 32" fill="none" xmlns="http://www.w3.org/2000/svg">
    <path fill-rule="evenodd" clip-rule="evenodd" d="M7.107.712c5.895-.95 11.89-.95 17.786 0a8.833 8.833 0 0 1 6.395 6.395c.95 5.895.95 11.89 0 17.786a8.833 8.833 0 0 1-6.395 6.395c-5.895.95-11.89.95-17.786 0a8.833 8.833 0 0 1-6.395-6.395 55.899 55.899 0 0 1 0-17.786A8.833 8.833 0 0 1 7.107.712Z" fill="#0054A6"/>
    <path d="m17.882 9.076 1.5-2.488 6.97 6.977-2.492 1.494-5.978-5.983Z" fill="white"/>
    <path d="m9.923 12.203 7.814-.909 3.91 3.66-.974 7.287L11.09 24.4a3.06 3.06 0 0 1-2.17-.329l5.245-4.897c.91.407 2.003.142 2.587-.626.583-.77.488-1.818-.226-2.484-.714-.666-1.84-.755-2.664-.21-.824.543-1.108 1.562-.671 2.412l-5.244 4.89a2.532 2.532 0 0 1-.339-2.017l2.315-8.936Z" fill="white"/>
</svg>
