<?xml version="1.0" standalone="no"?><!DOCTYPE svg PUBLIC "-//W3C//DTD SVG 1.1//EN" "http://www.w3.org/Graphics/SVG/1.1/DTD/svg11.dtd"><svg t="1764947239848" class="icon" viewBox="0 0 1024 1024" version="1.1" xmlns="http://www.w3.org/2000/svg" p-id="2800" xmlns:xlink="http://www.w3.org/1999/xlink" width="200" height="200"><path d="M931.63318 393.055232v548.776928c0 45.389911-36.777928 82.16784-82.145839 82.16784H174.514659c-38.775924 0-71.267861-26.867948-79.901844-63.005877l-0.329999-46.975908-1.915996-279.755454V82.16784C92.36682 36.777928 129.144748 0 174.514659 0H538.579948c32.717936 0 138.681729 90.345824 232.345546 185.493638 85.463833 86.84383 160.707686 177.685653 160.707686 207.561594z" fill="#DDEAFB" p-id="2801"></path><path d="M931.63318 393.055232v201.029608c0-0.226-0.02-0.453999-0.02-0.699999-6.181988-246.665518-207.107595-258.079496-272.811467-323.785368l112.123781-84.103835c85.463833 86.84183 160.707686 177.683653 160.707686 207.559594z" fill="#CBE2FF" p-id="2802"></path><path d="M538.567948 0H337.538341c0.226 0 0.453999 0.02 0.699998 0.02 246.665518 6.181988 258.079496 207.107595 323.785368 272.811467l84.103836-112.123781C659.283712 75.243853 568.44389 0 538.567948 0z" fill="#CBE2FF" p-id="2803"></path><path d="M931.63118 393.065232v34.753932c0-73.169857-59.333884-132.505741-132.505741-132.505741h-80.647842c-45.367911 0-82.16184-36.793928-82.16184-82.161839V132.505741C636.317757 59.333884 576.981873 0 503.812016 0h34.753932c62.579878 0 122.615761 24.865951 166.865674 69.113865l157.085693 157.085693a236.013539 236.013539 0 0 1 69.113865 166.865674z" fill="#BED8FB" p-id="2804"></path><path d="M792.911451 480.063062H231.076549a15.45197 15.45197 0 1 1 0-30.903939h561.834902a15.45197 15.45197 0 0 1 15.45197 15.45197 15.44997 15.44997 0 0 1-15.45197 15.451969zM792.911451 562.260902H231.076549a15.45197 15.45197 0 1 1 0-30.90394h561.834902a15.45197 15.45197 0 1 1 0 30.90394zM792.911451 644.458741H231.076549a15.45197 15.45197 0 1 1 0-30.903939h561.834902a15.45197 15.45197 0 0 1 15.45197 15.451969 15.44997 15.44997 0 0 1-15.45197 15.45197zM437.466146 726.656581H231.076549a15.45197 15.45197 0 1 1 0-30.90394h206.389597a15.45197 15.45197 0 1 1 0 30.90394zM437.466146 252.075508H231.076549a15.45197 15.45197 0 1 1 0-30.90394h206.389597a15.45197 15.45197 0 1 1 0 30.90394z" fill="#617881" p-id="2805"></path></svg>