<?xml version="1.0" standalone="no"?><!DOCTYPE svg PUBLIC "-//W3C//DTD SVG 1.1//EN" "http://www.w3.org/Graphics/SVG/1.1/DTD/svg11.dtd"><svg t="1764947137985" class="icon" viewBox="0 0 1024 1024" version="1.1" xmlns="http://www.w3.org/2000/svg" p-id="2153" xmlns:xlink="http://www.w3.org/1999/xlink" width="200" height="200"><path d="M1015.316 744.736l-0.02 0.02a3095.664 3095.664 0 0 1-10.528 113.28c-3.998 35.974-33.13 63.954-69.208 66.838-282.354 22.726-564.75 22.726-847.106 0-36.262-2.906-65.252-31.152-69.27-67.292C-6.592 626.058-6.386 394.532 19.76 163.008c3.852-34.078 30.308-61.256 64.242-66.242 129.824-19.12 246.112-19.574 357.764-1.34 33.358 5.44 59.092 32.452 62.882 66.014 0.494 4.348 0.968 8.694 1.442 13.042 4.204 38.53 36.82 67.642 75.574 67.456a5277.76 5277.76 0 0 1 365.862 10.982c38.118 2.472 68.384 32.946 70.712 71.084a3099.228 3099.228 0 0 1-2.922 420.732z" fill="#F1D333" p-id="2154"></path><path d="M1015.296 744.756a3095.664 3095.664 0 0 1-10.528 113.28c-3.998 35.974-33.13 63.954-69.208 66.838-282.354 22.726-564.75 22.726-847.106 0-36.262-2.906-65.252-31.152-69.27-67.292C-6.592 626.058-6.386 394.532 19.76 163.008c3.852-34.078 30.308-61.256 64.242-66.242 0 155.95-35.788 675.516 129.35 711.758 165.12 36.244 672.942 65.17 801.944-63.768z" fill="#EAB14D" p-id="2155"></path><path d="M401.046 527.806H119.87c-27.09 0-49.05-21.96-49.05-49.05v-112.61c0-27.09 21.96-49.05 49.05-49.05h281.176c27.09 0 49.05 21.96 49.05 49.05v112.61c0 27.09-21.96 49.05-49.05 49.05z" fill="#EAB14D" p-id="2156"></path><path d="M401.046 543.258H119.872c-35.568 0-64.504-28.934-64.504-64.502v-112.61c0-35.566 28.936-64.502 64.504-64.502h281.174c35.566 0 64.502 28.934 64.502 64.502v112.61c0 35.568-28.936 64.502-64.502 64.502zM119.872 332.552c-18.526 0-33.598 15.07-33.598 33.596v112.61c0 18.526 15.072 33.596 33.598 33.596h281.174c18.526 0 33.596-15.07 33.596-33.596v-112.61c0-18.526-15.07-33.596-33.596-33.596z" fill="#DD636E" p-id="2157"></path><path d="M277.104 479.796H151.052a15.452 15.452 0 1 1 0-30.904h126.05a15.45 15.45 0 0 1 15.452 15.452 15.45 15.45 0 0 1-15.45 15.452zM369.864 405.32H151.052a15.452 15.452 0 1 1 0-30.904h218.812c8.536 0 15.452 6.918 15.452 15.452s-6.916 15.452-15.452 15.452z" fill="#DD636E" p-id="2158"></path></svg>