<?xml version="1.0" standalone="no"?><!DOCTYPE svg PUBLIC "-//W3C//DTD SVG 1.1//EN" "http://www.w3.org/Graphics/SVG/1.1/DTD/svg11.dtd"><svg t="1764949156079" class="icon" viewBox="0 0 1024 1024" version="1.1" xmlns="http://www.w3.org/2000/svg" p-id="3112" xmlns:xlink="http://www.w3.org/1999/xlink" width="200" height="200"><path d="M890.842 326.28C887.122 146.432 740.186 1.784 559.45 1.784c-139.52 0-258.892 86.204-307.8 208.248a230.46 230.46 0 0 0-23.682-1.224C102.064 208.808 0 310.872 0 436.778c0 125.902 102.064 227.968 227.968 227.968H852.6c94.662 0 171.402-76.738 171.402-171.4-0.002-81.512-56.916-149.682-133.16-167.066z" fill="#80B4FB" p-id="3113"></path><path d="M752.576 63.87c-27.436-7.374-56.29-11.304-86.046-11.304-139.502 0-258.878 86.206-307.794 208.254a229.886 229.886 0 0 0-23.668-1.224c-125.912 0-227.964 102.084-227.964 227.964 0 69.494 31.076 131.708 80.12 173.54C80.764 641.91 0 548.778 0 436.778c0-125.912 102.082-227.964 227.962-227.964 8.018 0 15.908 0.418 23.702 1.224C300.548 87.99 419.924 1.782 559.458 1.782c72.07 0 138.76 22.994 193.118 62.088z" fill="#5EA5EC" p-id="3114"></path><path d="M959.032 600.318v366.956c0 30.352-24.592 54.944-54.93 54.944h-451.34c-25.928 0-47.656-17.966-53.428-42.13l-0.22-31.412-1.282-187.066V392.434c0-30.352 24.592-54.944 54.93-54.944h243.442c21.878 0 92.734 60.412 155.366 124.036 57.148 58.072 107.462 118.816 107.462 138.792z" fill="#DDEAFB" p-id="3115"></path><path d="M959.032 600.318v134.424c0-0.152-0.014-0.304-0.014-0.468-4.134-164.94-138.488-172.572-182.424-216.508l74.976-56.238c57.148 58.07 107.462 118.814 107.462 138.79z" fill="#CBE2FF" p-id="3116"></path><path d="M696.198 337.49h-134.424c0.152 0 0.304 0.014 0.468 0.014 164.94 4.134 172.574 138.488 216.508 182.424l56.238-74.976c-58.07-57.148-118.814-107.462-138.79-107.462z" fill="#CBE2FF" p-id="3117"></path><path d="M959.032 600.326v23.24c0-48.928-39.676-88.604-88.604-88.604H816.5c-30.336 0-54.94-24.604-54.94-54.94v-53.928c0-48.928-39.676-88.604-88.604-88.604h23.24a157.808 157.808 0 0 1 111.58 46.216l105.04 105.04a157.816 157.816 0 0 1 46.216 111.58z" fill="#BED8FB" p-id="3118"></path><path d="M895.53 688.054H461.328a15.452 15.452 0 1 1 0-30.904h434.202a15.454 15.454 0 0 1 0 30.904zM895.53 751.578H461.328a15.452 15.452 0 1 1 0-30.904h434.202a15.454 15.454 0 0 1 0 30.904zM895.53 815.102H461.328a15.452 15.452 0 1 1 0-30.904h434.202a15.452 15.452 0 1 1 0 30.904zM620.83 878.626h-159.504a15.452 15.452 0 1 1 0-30.904h159.504a15.45 15.45 0 0 1 15.452 15.452 15.45 15.45 0 0 1-15.452 15.452zM620.83 511.86h-159.504a15.452 15.452 0 1 1 0-30.904h159.504c8.536 0 15.452 6.918 15.452 15.452s-6.916 15.452-15.452 15.452z" fill="#617881" p-id="3119"></path></svg>