<?xml version="1.0" standalone="no"?><!DOCTYPE svg PUBLIC "-//W3C//DTD SVG 1.1//EN" "http://www.w3.org/Graphics/SVG/1.1/DTD/svg11.dtd"><svg t="1718188630042" class="icon" viewBox="0 0 1161 1024" version="1.1" xmlns="http://www.w3.org/2000/svg" p-id="47776" xmlns:xlink="http://www.w3.org/1999/xlink" width="453.515625" height="400"><path d="M334.212408 332.37627l164.59917 59.921654v193.447721l-164.59917-59.921654z" fill="#E9E9FF" p-id="47777"></path><path d="M167.19448 393.180683v193.447721l167.017928-60.804413V332.37627z" fill="#353564" p-id="47778"></path><path d="M167.19448 586.628404l164.581514 59.903999 167.017928-60.786758-164.581514-59.921654z" fill="#AFAFDE" p-id="47779"></path><path d="M167.19448 393.180683l164.581514 59.903999 167.017928-60.786758-164.581514-59.921654z" fill="#F7F7F4" p-id="47780"></path><path d="M331.775994 453.084682V646.532403l167.017928-60.786758V392.297924z" fill="#FFFFFF" p-id="47781"></path><path d="M167.19448 393.180683l164.581514 59.903999V646.532403L167.19448 586.628404z" fill="#EFEEEA" p-id="47782"></path><path d="M499.517784 197.137652l164.59917 59.903999v193.447721l-164.59917-59.903999z" fill="#E9E9FF" p-id="47783"></path><path d="M332.499856 257.924409v193.447721l167.017928-60.786757V197.137652z" fill="#353564" p-id="47784"></path><path d="M332.499856 451.37213l164.581515 59.903999 167.035583-60.786757-164.59917-59.903999z" fill="#AFAFDE" p-id="47785"></path><path d="M332.499856 257.924409l164.581515 59.903999 167.035583-60.786757-164.59917-59.903999z" fill="#F7F7F4" p-id="47786"></path><path d="M497.081371 317.828408V511.293784l167.035583-60.786757V257.041651z" fill="#FFFFFF" p-id="47787"></path><path d="M332.499856 257.924409l164.581515 59.903999V511.293784l-164.581515-59.903999z" fill="#EFEEEA" p-id="47788"></path><path d="M168.907032 587.864266l164.581514 59.903999v193.44772l-164.581514-59.903998z" fill="#E9E9FF" p-id="47789"></path><path d="M1.871448 648.651023v193.447721l167.017928-60.786757V587.864266z" fill="#353564" p-id="47790"></path><path d="M1.871448 842.098744L166.488273 902.002743l167.017928-60.786758-164.581514-59.903998z" fill="#AFAFDE" p-id="47791"></path><path d="M1.871448 648.651023l164.59917 59.903999 167.017928-60.786757-164.581514-59.903999z" fill="#F7F7F4" p-id="47792"></path><path d="M166.470618 708.555022V902.002743l167.017928-60.786758V647.768265z" fill="#FFFFFF" p-id="47793"></path><path d="M1.871448 648.651023l164.59917 59.903999V902.002743L1.871448 842.098744z" fill="#EFEEEA" p-id="47794"></path><path d="M334.212408 647.980127l164.59917 59.903999v193.447721l-164.59917-59.903999z" fill="#E9E9FF" p-id="47795"></path><path d="M167.19448 708.766884v193.447721l167.017928-60.786757V647.980127z" fill="#353564" p-id="47796"></path><path d="M167.19448 902.214605l164.581514 59.903999 167.017928-60.786757-164.581514-59.903999z" fill="#AFAFDE" p-id="47797"></path><path d="M167.19448 708.766884l164.581514 59.903999 167.017928-60.786757-164.581514-59.903999z" fill="#F7F7F4" p-id="47798"></path><path d="M331.775994 768.670883v193.447721l167.017928-60.786757V707.884126z" fill="#FFFFFF" p-id="47799"></path><path d="M167.19448 708.766884l164.581514 59.903999v193.447721L167.19448 902.214605z" fill="#EFEEEA" p-id="47800"></path><path d="M334.212408 452.607992l164.59917 59.903999v193.447721l-164.59917-59.903999z" fill="#E9E9FF" p-id="47801"></path><path d="M167.19448 513.412405v193.430066l167.017928-60.786758V452.607992z" fill="#353564" p-id="47802"></path><path d="M167.19448 706.842471l164.581514 59.921654 167.017928-60.804413-164.581514-59.903999z" fill="#AFAFDE" p-id="47803"></path><path d="M167.19448 513.412405l164.581514 59.903999 167.017928-60.804413-164.581514-59.903999z" fill="#F7F7F4" p-id="47804"></path><path d="M331.775994 573.316404V766.764125l167.017928-60.804413V512.529646z" fill="#FFFFFF" p-id="47805"></path><path d="M167.19448 513.412405l164.581514 59.903999V766.764125L167.19448 706.842471z" fill="#EFEEEA" p-id="47806"></path><path d="M995.451569 527.748405l164.59917 59.903999v193.44772l-164.59917-59.903999z" fill="#E9E9FF" p-id="47807"></path><path d="M828.433641 588.535162v193.447721l167.017928-60.786758V527.748405z" fill="#353564" p-id="47808"></path><path d="M828.433641 781.982883l164.581514 59.921654 167.017928-60.804413-164.581514-59.903999z" fill="#AFAFDE" p-id="47809"></path><path d="M828.433641 588.535162l164.581514 59.921654 167.017928-60.804412-164.581514-59.903999z" fill="#F7F7F4" p-id="47810"></path><path d="M993.015155 648.456816v193.447721l167.017928-60.804413V587.652404z" fill="#FFFFFF" p-id="47811"></path><path d="M828.433641 588.535162l164.581514 59.921654v193.447721l-164.581514-59.921654z" fill="#EFEEEA" p-id="47812"></path><path d="M830.090009 587.836218l164.586216 59.906023v193.446052l-164.586216-59.906023z" fill="#E9E9FF" p-id="47813"></path><path d="M663.064285 648.628289v193.446051l167.025724-60.79207v-193.434545z" fill="#353564" p-id="47814"></path><path d="M663.064285 842.07434l164.586216 59.906023 167.025724-60.79207-164.586216-59.906023z" fill="#AFAFDE" p-id="47815"></path><path d="M663.064285 648.628289l164.586216 59.906022 167.025724-60.79207-164.586216-59.906023z" fill="#F7F7F4" p-id="47816"></path><path d="M827.650501 708.534311v193.446052l167.025724-60.79207v-193.434545z" fill="#FFD242" p-id="47817"></path><path d="M663.064285 648.628289l164.586216 59.906022v193.446052l-164.586216-59.906023z" fill="#EFEEEA" p-id="47818"></path><path d="M932.564918 767.297889m-32.082862 11.677207a27.694394 39.551694 35.00061809 1 0 64.165723-23.354413 27.694394 39.551694 35.00061809 1 0-64.165723 23.354413Z" fill="#FFFFFF" p-id="47819"></path><path d="M664.840816 647.980127l164.581515 59.903999v193.447721l-164.581515-59.903999z" fill="#E9E9FF" p-id="47820"></path><path d="M497.805233 708.766884v193.447721l167.017928-60.786757V647.980127z" fill="#353564" p-id="47821"></path><path d="M497.805233 902.214605l164.599169 59.903999 167.017929-60.786757-164.581515-59.903999z" fill="#AFAFDE" p-id="47822"></path><path d="M497.805233 708.766884l164.599169 59.903999 167.017929-60.786757-164.581515-59.903999z" fill="#F7F7F4" p-id="47823"></path><path d="M662.404402 768.670883v193.447721l167.017929-60.786757V707.884126z" fill="#FFD242" p-id="47824"></path><path d="M497.805233 708.766884l164.599169 59.903999v193.447721l-164.599169-59.903999z" fill="#EFEEEA" p-id="47825"></path><path d="M499.517784 708.095988l164.59917 59.903999v193.447721l-164.59917-59.903999z" fill="#E9E9FF" p-id="47826"></path><path d="M332.499856 768.882745v193.447721l167.017928-60.786757V708.095988z" fill="#353564" p-id="47827"></path><path d="M332.499856 962.330466l164.581515 59.903999 167.017928-60.786757-164.581515-59.903999z" fill="#AFAFDE" p-id="47828"></path><path d="M332.499856 768.882745l164.581515 59.903999 167.017928-60.786757-164.581515-59.903999z" fill="#F7F7F4" p-id="47829"></path><path d="M497.081371 828.786744V1022.234465l167.017928-60.786757V767.999987z" fill="#FFFFFF" p-id="47830"></path><path d="M332.499856 768.882745l164.581515 59.903999V1022.234465l-164.581515-59.903999z" fill="#EFEEEA" p-id="47831"></path><path d="M995.451569 332.37627l164.59917 59.921654v193.447721l-164.59917-59.921654z" fill="#E9E9FF" p-id="47832"></path><path d="M828.433641 393.180683v193.447721l167.017928-60.804413V332.37627z" fill="#353564" p-id="47833"></path><path d="M828.433641 586.628404l164.581514 59.903999 167.017928-60.786758-164.581514-59.921654z" fill="#AFAFDE" p-id="47834"></path><path d="M828.433641 393.180683l164.581514 59.903999 167.017928-60.786758-164.581514-59.921654z" fill="#F7F7F4" p-id="47835"></path><path d="M993.015155 453.084682V646.532403l167.017928-60.786758V392.297924z" fill="#FFD242" p-id="47836"></path><path d="M828.433641 393.180683l164.581514 59.903999V646.532403l-164.581514-59.903999z" fill="#EFEEEA" p-id="47837"></path><path d="M995.451569 137.004136l164.59917 59.921654V390.355855l-164.59917-59.903999z" fill="#E9E9FF" p-id="47838"></path><path d="M828.433641 197.808548v193.447721l167.017928-60.786757V137.004136z" fill="#353564" p-id="47839"></path><path d="M828.433641 391.256269l164.581514 59.903999 167.017928-60.786757-164.581514-59.903999z" fill="#AFAFDE" p-id="47840"></path><path d="M828.433641 197.808548l164.581514 59.903999 167.017928-60.786757-164.581514-59.903999z" fill="#FFC91D" p-id="47841"></path><path d="M993.015155 257.712547v193.447721l167.017928-60.786757V196.92579z" fill="#FFD242" p-id="47842"></path><path d="M828.433641 197.808548l164.581514 59.903999v193.447721l-164.581514-59.903999z" fill="#EFEEEA" p-id="47843"></path><path d="M830.146193 392.492131l164.581514 59.903999v193.447721l-164.581514-59.903999z" fill="#E9E9FF" p-id="47844"></path><path d="M663.128264 453.296544v193.447721l167.017929-60.804413V392.492131z" fill="#353564" p-id="47845"></path><path d="M663.128264 646.744265l164.581515 59.903999 167.017928-60.804413-164.581514-59.903999z" fill="#AFAFDE" p-id="47846"></path><path d="M663.128264 453.296544l164.581515 59.903999 167.017928-60.804413-164.581514-59.903999z" fill="#F7F7F4" p-id="47847"></path><path d="M827.709779 513.200543v193.447721l167.017928-60.804413V452.39613z" fill="#FFD242" p-id="47848"></path><path d="M663.128264 453.296544l164.581515 59.903999v193.447721l-164.59917-59.903999z" fill="#EFEEEA" p-id="47849"></path><path d="M830.146193 197.137652l164.581514 59.903999v193.447721l-164.581514-59.903999z" fill="#E9E9FF" p-id="47850"></path><path d="M663.128264 257.924409v193.447721l167.017929-60.786757V197.137652z" fill="#353564" p-id="47851"></path><path d="M663.128264 451.37213l164.581515 59.903999 167.017928-60.786757-164.581514-59.903999z" fill="#AFAFDE" p-id="47852"></path><path d="M663.128264 257.924409l164.581515 59.903999 167.017928-60.786757-164.581514-59.903999z" fill="#F7F7F4" p-id="47853"></path><path d="M827.709779 317.828408V511.293784l167.017928-60.786757V257.041651z" fill="#3775A9" p-id="47854"></path><path d="M663.128264 257.924409l164.581515 59.903999V511.293784l-164.59917-59.903999z" fill="#EFEEEA" p-id="47855"></path><path d="M830.146193 1.765517l164.581514 59.903999V255.117237l-164.581514-59.903999z" fill="#E9E9FF" p-id="47856"></path><path d="M663.128264 62.552275V255.999996l167.017929-60.786758V1.765517z" fill="#353564" p-id="47857"></path><path d="M663.128264 255.999996l164.581515 59.903999 167.017928-60.786758-164.581514-59.903999z" fill="#AFAFDE" p-id="47858"></path><path d="M663.128264 62.552275l164.581515 59.903999 167.017928-60.786758L830.146193 1.765517z" fill="#2F6491" p-id="47859"></path><path d="M827.709779 122.456274v193.447721l167.017928-60.786758V61.669516z" fill="#3775A9" p-id="47860"></path><path d="M663.128264 62.552275l164.581515 59.903999v193.447721L663.110609 255.999996z" fill="#EFEEEA" p-id="47861"></path><path d="M664.840816 452.607992l164.581515 59.903999v193.447721l-164.581515-59.903999z" fill="#E9E9FF" p-id="47862"></path><path d="M497.805233 513.412405v193.430066l167.017928-60.786758V452.607992z" fill="#353564" p-id="47863"></path><path d="M497.805233 706.842471l164.599169 59.921654 167.017929-60.804413-164.581515-59.903999z" fill="#AFAFDE" p-id="47864"></path><path d="M497.805233 513.412405l164.599169 59.903999 167.017929-60.804413-164.581515-59.903999z" fill="#F7F7F4" p-id="47865"></path><path d="M662.404402 573.316404V766.764125l167.017929-60.804413V512.529646z" fill="#FFD242" p-id="47866"></path><path d="M497.805233 513.412405l164.599169 59.903999V766.764125l-164.599169-59.921654z" fill="#EFEEEA" p-id="47867"></path><path d="M664.840816 257.235858l164.581515 59.921654V510.587577l-164.581515-59.921654z" fill="#E9E9FF" p-id="47868"></path><path d="M497.805233 318.04027V511.470336l167.017928-60.804413V257.235858z" fill="#353564" p-id="47869"></path><path d="M497.805233 511.470336l164.599169 59.921654 167.017929-60.786757-164.581515-59.921655z" fill="#AFAFDE" p-id="47870"></path><path d="M497.805233 318.04027l164.599169 59.903999 167.017929-60.786757-164.581515-59.921654z" fill="#F7F7F4" p-id="47871"></path><path d="M662.404402 377.944269v193.447721l167.017929-60.786757V317.157512z" fill="#3775A9" p-id="47872"></path><path d="M497.805233 318.04027l164.599169 59.903999v193.447721l-164.599169-59.903999z" fill="#EFEEEA" p-id="47873"></path><path d="M499.517784 512.706198l164.59917 59.921654v193.447721l-164.59917-59.903999z" fill="#E9E9FF" p-id="47874"></path><path d="M332.499856 573.510611v193.447721l167.017928-60.786758V512.706198z" fill="#353564" p-id="47875"></path><path d="M332.499856 766.958332l164.581515 59.903999 167.017928-60.786758-164.581515-59.903999z" fill="#AFAFDE" p-id="47876"></path><path d="M332.499856 573.510611l164.581515 59.903999 167.017928-60.786758-164.581515-59.903999z" fill="#F7F7F4" p-id="47877"></path><path d="M497.081371 633.41461v193.447721l167.017928-60.786758V572.627852z" fill="#3775A9" p-id="47878"></path><path d="M332.499856 573.510611l164.581515 59.903999v193.447721l-164.581515-59.903999z" fill="#2F6491" p-id="47879"></path><path d="M499.517784 317.351719l164.59917 59.903999v193.44772l-164.59917-59.903999z" fill="#E9E9FF" p-id="47880"></path><path d="M332.499856 378.156131v193.447721l167.017928-60.804413V317.351719z" fill="#353564" p-id="47881"></path><path d="M332.499856 571.603852l164.581515 59.903999 167.017928-60.804413-164.581515-59.903999z" fill="#AFAFDE" p-id="47882"></path><path d="M332.499856 378.156131l164.581515 59.903999 167.017928-60.804412-164.581515-59.903999z" fill="#2F6491" p-id="47883"></path><path d="M497.081371 438.06013v193.447721l167.017928-60.804413V377.255718z" fill="#3775A9" p-id="47884"></path><path d="M332.499856 378.156131l164.581515 59.903999v193.447721l-164.581515-59.903999z" fill="#2F6491" p-id="47885"></path><path d="M664.778845 61.857658l164.597723 59.906022v193.446052l-164.597723-59.906023z" fill="#E9E9FF" p-id="47886"></path><path d="M497.753121 122.649728v193.446052l167.025724-60.792071v-193.446051z" fill="#353564" p-id="47887"></path><path d="M497.753121 316.09578l164.597723 59.906022 167.025724-60.79207-164.597723-59.906023z" fill="#AFAFDE" p-id="47888"></path><path d="M497.753121 122.649728l164.597723 59.906022 167.025724-60.79207-164.597723-59.906022z" fill="#2F6491" p-id="47889"></path><path d="M662.350844 182.55575v193.446052l167.025724-60.79207v-193.446052z" fill="#3775A9" p-id="47890"></path><path d="M497.753121 122.649728l164.597723 59.906022v193.446052l-164.597723-59.906022z" fill="#2F6491" p-id="47891"></path><path d="M724.940037 256.269142m-32.082862 11.677206a27.694394 39.551694 35.00061809 1 0 64.165723-23.354413 27.694394 39.551694 35.00061809 1 0-64.165723 23.354413Z" fill="#FFFFFF" p-id="47892"></path></svg>